<?xml version="1.0" encoding="utf-8"?>
<!DOCTYPE svg PUBLIC "-//W3C//DTD SVG 1.1//EN" "http://www.w3.org/Graphics/SVG/1.1/DTD/svg11.dtd">
<svg version="1.1" xmlns="http://www.w3.org/2000/svg" xmlns:xlink="http://www.w3.org/1999/xlink" width="400" height="1200" viewBox="0 0 400 1200">

    /* 1 */

    <defs>
        <symbol id="edt">
            <path d="M20.719 7.031l-1.828 1.828-3.75-3.75 1.828-1.828c0.375-0.375 1.031-0.375 1.406 0l2.344 2.344c0.375 0.375 0.375 1.031 0 1.406zM3 17.25l11.063-11.063 3.75 3.75-11.063 11.063h-3.75v-3.75z"></path>
        </symbol>
    </defs>
    <use xlink:href="#edt" x="0" y="0" fill="#000"/>
    <use xlink:href="#edt" x="28" y="0" fill="#6b7c93"/>
    <use xlink:href="#edt" x="56" y="0" fill="#ccc"/>
    /* -------------------------------------------------------------------------------------------------------------------------------- */
    <defs>
        <symbol id="del">
            <path d="M18.984 3.984v2.016h-13.969v-2.016h3.469l1.031-0.984h4.969l1.031 0.984h3.469zM6 18.984v-12h12v12c0 1.078-0.938 2.016-2.016 2.016h-7.969c-1.078 0-2.016-0.938-2.016-2.016z"></path>
        </symbol>
    </defs>
    <use xlink:href="#del" x="84" y="0" fill="white"/>
    <use xlink:href="#del" x="112" y="0" fill="red"/>
    <use xlink:href="#del" x="140" y="0" fill="#ccc"/>
    /* -------------------------------------------------------------------------------------------------------------------------------- */
    <defs>
        <symbol id="shp">
            <path
                d="M6 6v3.984l6-1.969 6 1.969v-3.984h-12zM3.938 18.984l-1.875-6.656c-0.224-0.672 0.187-1.109 0.656-1.266l1.266-0.422v-4.641c0-1.078 0.938-2.016 2.016-2.016h3v-3h6v3h3c1.078 0 2.016 0.938 2.016 2.016v4.641l1.266 0.422c0.47 0.157 0.881 0.592 0.656 1.266l-1.875 6.656h-0.047c-1.594 0-3.047-0.844-4.031-1.969-0.984 1.125-2.391 1.969-3.984 1.969s-3-0.844-3.984-1.969c-0.984 1.125-2.438 1.969-4.031 1.969h-0.047zM20.016 21h1.969v2.016h-1.969c-1.359 0-2.766-0.328-4.031-0.984-2.531 1.313-5.438 1.313-7.969 0-1.266 0.656-2.672 0.984-4.031 0.984h-1.969v-2.016h1.969c1.406 0 2.813-0.469 4.031-1.313 2.438 1.688 5.531 1.688 7.969 0 1.219 0.844 2.625 1.313 4.031 1.313z"></path>
        </symbol>
    </defs>
    <use xlink:href="#shp" x="0" y="28" fill="#000"/>
    <use xlink:href="#shp" x="28" y="28" fill="dodgerblue"/>
    <use xlink:href="#shp" x="56" y="28" fill="#ccc"/>
    /* -------------------------------------------------------------------------------------------------------------------------------- */
    <defs>
        <symbol id="trck">
            <path
                d="M18 18.516c0.844 0 1.5-0.656 1.5-1.5s-0.656-1.5-1.5-1.5-1.5 0.656-1.5 1.5 0.656 1.5 1.5 1.5zM19.5 9.516h-2.484v2.484h4.453zM6 18.516c0.844 0 1.5-0.656 1.5-1.5s-0.656-1.5-1.5-1.5-1.5 0.656-1.5 1.5 0.656 1.5 1.5 1.5zM20.016 8.016l3 3.984v5.016h-2.016c0 1.641-1.359 3-3 3s-3-1.359-3-3h-6c0 1.641-1.359 3-3 3s-3-1.359-3-3h-2.016v-11.016c0-1.078 0.938-2.016 2.016-2.016h14.016v4.031h3z"></path>
        </symbol>
    </defs>
    <use xlink:href="#trck" x="84" y="28" fill="#000"/>
    <use xlink:href="#trck" x="112" y="28" fill="dodgerblue"/>
    <use xlink:href="#trck" x="140" y="28" fill="#ccc"/>
    /* -------------------------------------------------------------------------------------------------------------------------------- */
    <defs>
        <symbol id="pln">
            <path d="M21 15.984l-8.016-2.484v5.484l2.016 1.5v1.5l-3.516-0.984-3.469 0.984v-1.5l1.969-1.5v-5.484l-7.969 2.484v-1.969l7.969-5.016v-5.484c0-0.844 0.656-1.5 1.5-1.5s1.5 0.656 1.5 1.5v5.484l8.016 5.016v1.969z"></path>
        </symbol>
    </defs>
    <use xlink:href="#pln" x="0" y="56" fill="#000"/>
    <use xlink:href="#pln" x="28" y="56" fill="dodgerblue"/>
    <use xlink:href="#pln" x="56" y="56" fill="#ccc"/>
    /* -------------------------------------------------------------------------------------------------------------------------------- */
    <defs>
        <symbol id="dt">
            <path
                d="M18.984 20.016v-11.016h-13.969v11.016h13.969zM18.984 3.984c1.078 0 2.016 0.938 2.016 2.016v14.016c0 1.078-0.938 1.969-2.016 1.969h-13.969c-1.125 0-2.016-0.891-2.016-1.969v-14.016c0-1.078 0.891-2.016 2.016-2.016h0.984v-1.969h2.016v1.969h7.969v-1.969h2.016v1.969h0.984zM17.016 11.016v1.969h-2.016v-1.969h2.016zM12.984 11.016v1.969h-1.969v-1.969h1.969zM9 11.016v1.969h-2.016v-1.969h2.016z"></path>
        </symbol>
    </defs>
    <use xlink:href="#dt" x="84" y="56" fill="gray"/>
    <use xlink:href="#dt" x="112" y="56" fill="dodgerblue"/>
    <use xlink:href="#dt" x="140" y="56" fill="#ccc"/>
    /* -------------------------------------------------------------------------------------------------------------------------------- */
    <defs>
        <symbol id="ad">
            <path d="M18.984 12.984h-6v6h-1.969v-6h-6v-1.969h6v-6h1.969v6h6v1.969z"></path>
        </symbol>
        <symbol id="ad2">
            <path d="M18.984 12.984h-6v6h-1.969v-6h-6v-1.969h6v-6h1.969v6h6v1.969z" transform="scale(1.2)"></path>
        </symbol>
    </defs>
    <use xlink:href="#ad" x="0" y="84" fill="white"/>
    <use xlink:href="#ad2" x="25.5" y="81.5" fill="#00e6ac"/>
    <use xlink:href="#ad" x="56" y="84" fill="#ccc"/>
    /* -------------------------------------------------------------------------------------------------------------------------------- */
    <defs>
        <symbol id="cls">
            <path d="M18.984 6.422l-5.578 5.578 5.578 5.578-1.406 1.406-5.578-5.578-5.578 5.578-1.406-1.406 5.578-5.578-5.578-5.578 1.406-1.406 5.578 5.578 5.578-5.578z"></path>
        </symbol>
    </defs>
    <use xlink:href="#cls" x="84" y="84" fill="white"/>
    <use xlink:href="#cls" x="112" y="84" fill="red"/>
    <use xlink:href="#cls" x="140" y="84" fill="#806000"/>
    /* -------------------------------------------------------------------------------------------------------------------------------- */
    <defs>
        <symbol id="str">
            <path d="M12 17.25l-6.188 3.75 1.641-7.031-5.438-4.734 7.172-0.609 2.813-6.609 2.813 6.609 7.172 0.609-5.438 4.734 1.641 7.031z"></path>
        </symbol>
    </defs>
    <use xlink:href="#str" x="0" y="112" fill="white"/>
    <use xlink:href="#str" x="28" y="112" fill="#ffd627"/>
    <use xlink:href="#str" x="56" y="112" fill="#4384c1"/>
	<use xlink:href="#str" x="28" y="168" fill="#5fba7d"/>
	<use xlink:href="#str" x="56" y="168" fill="#6b7c93"/>
    /* -------------------------------------------------------------------------------------------------------------------------------- */
    <defs>
        <symbol id="mn">
            <path
                d="M12 15.984c1.078 0 2.016 0.938 2.016 2.016s-0.938 2.016-2.016 2.016-2.016-0.938-2.016-2.016 0.938-2.016 2.016-2.016zM12 9.984c1.078 0 2.016 0.938 2.016 2.016s-0.938 2.016-2.016 2.016-2.016-0.938-2.016-2.016 0.938-2.016 2.016-2.016zM12 8.016c-1.078 0-2.016-0.938-2.016-2.016s0.938-2.016 2.016-2.016 2.016 0.938 2.016 2.016-0.938 2.016-2.016 2.016z"></path>
        </symbol>
    </defs>
    <use xlink:href="#mn" x="84" y="112" fill="white"/>
    <use xlink:href="#mn" x="112" y="112" fill="lightgray"/>
    <use xlink:href="#mn" x="140" y="112" fill="#ccc"/>
    /* -------------------------------------------------------------------------------------------------------------------------------- */
    <defs>
        <symbol id="dn">
            <path d="M0 0h24v24H0z" fill="none"/>
            <path d="M9 16.2L4.8 12l-1.4 1.4L9 19 21 7l-1.4-1.4L9 16.2z"/>
        </symbol>
    </defs>
    <use xlink:href="#dn" x="0" y="140" fill="#000"/>
    <use xlink:href="#dn" x="28" y="140" fill="red"/>
    <use xlink:href="#dn" x="56" y="140" fill="#ccc"/>
    /* -------------------------------------------------------------------------------------------------------------------------------- */
    <defs>
        <symbol id="voff">
            <path d="M0 0h24v24H0zm0 0h24v24H0zm0 0h24v24H0zm0 0h24v24H0z" fill="none"/>
            <path
                d="M12 7c2.76 0 5 2.24 5 5 0 .65-.13 1.26-.36 1.83l2.92 2.92c1.51-1.26 2.7-2.89 3.43-4.75-1.73-4.39-6-7.5-11-7.5-1.4 0-2.74.25-3.98.7l2.16 2.16C10.74 7.13 11.35 7 12 7zM2 4.27l2.28 2.28.46.46C3.08 8.3 1.78 10.02 1 12c1.73 4.39 6 7.5 11 7.5 1.55 0 3.03-.3 4.38-.84l.42.42L19.73 22 21 20.73 3.27 3 2 4.27zM7.53 9.8l1.55 1.55c-.05.21-.08.43-.08.65 0 1.66 1.34 3 3 3 .22 0 .44-.03.65-.08l1.55 1.55c-.67.33-1.41.53-2.2.53-2.76 0-5-2.24-5-5 0-.79.2-1.53.53-2.2zm4.31-.78l3.15 3.15.02-.16c0-1.66-1.34-3-3-3l-.17.01z"/>
        </symbol>
    </defs>
    <use xlink:href="#voff" x="84" y="140" fill="#000"/>
    <use xlink:href="#voff" x="140" y="140" fill="#ccc"/>

    /* 2 */ /* -------------------------------------------------------------------------------------------------------------------------------- */ /*
    -------------------------------------------------------------------------------------------------------------------------------- */ /*
    -------------------------------------------------------------------------------------------------------------------------------- */ /*
    -------------------------------------------------------------------------------------------------------------------------------- */ /*
    -------------------------------------------------------------------------------------------------------------------------------- */

    <defs>
        <symbol id="a_cntr">
            <path d="M7 15v2h10v-2H7zm-4 6h18v-2H3v2zm0-8h18v-2H3v2zm4-6v2h10V7H7zM3 3v2h18V3H3z"/>
        </symbol>
    </defs>
    <use xlink:href="#a_cntr" x="0" y="168" fill="#000"/>

    /* -------------------------------------------------------------------------------------------------------------------------------- */
    <defs>
        <symbol id="a_jstfy">
            <path d="M3 21h18v-2H3v2zm0-4h18v-2H3v2zm0-4h18v-2H3v2zm0-4h18V7H3v2zm0-6v2h18V3H3z"/>
        </symbol>
    </defs>
    <use xlink:href="#a_jstfy" x="84" y="168" fill="#000"/>
    <use xlink:href="#a_jstfy" x="112" y="168" fill="red"/>
    <use xlink:href="#a_jstfy" x="140" y="168" fill="#ccc"/>
    /* -------------------------------------------------------------------------------------------------------------------------------- */
    <defs>
        <symbol id="bld">
            <path d="M15.6 10.79c.97-.67 1.65-1.77 1.65-2.79 0-2.26-1.75-4-4-4H7v14h7.04c2.09 0 3.71-1.7 3.71-3.79 0-1.52-.86-2.82-2.15-3.42zM10 6.5h3c.83 0 1.5.67 1.5 1.5s-.67 1.5-1.5 1.5h-3v-3zm3.5 9H10v-3h3.5c.83 0 1.5.67 1.5 1.5s-.67 1.5-1.5 1.5z"/>
        </symbol>
    </defs>
    <use xlink:href="#bld" x="0" y="196" fill="#000"/>
    <use xlink:href="#bld" x="28" y="196" fill="red"/>
    <use xlink:href="#bld" x="56" y="196" fill="#ccc"/>
    /* -------------------------------------------------------------------------------------------------------------------------------- */
    <defs>
        <symbol id="clr_text">
            <path d="M0 20h24v4H0z" fill-opacity=".36"/>
            <path d="M11 3L5.5 17h2.25l1.12-3h6.25l1.12 3h2.25L13 3h-2zm-1.38 9L12 5.67 14.38 12H9.62z"/>
        </symbol>
    </defs>
    <use xlink:href="#clr_text" x="84" y="196" fill="#000"/>
    <use xlink:href="#clr_text" x="112" y="196" fill="red"/>
    <use xlink:href="#clr_text" x="140" y="196" fill="#ccc"/>
    /* -------------------------------------------------------------------------------------------------------------------------------- */
    <defs>
        <symbol id="i_dcrs">
            <path d="M11 17h10v-2H11v2zm-8-5l4 4V8l-4 4zm0 9h18v-2H3v2zM3 3v2h18V3H3zm8 6h10V7H11v2zm0 4h10v-2H11v2z"/>
        </symbol>
    </defs>
    <use xlink:href="#i_dcrs" x="0" y="224" fill="#000"/>
    <use xlink:href="#i_dcrs" x="28" y="224" fill="red"/>
    <use xlink:href="#i_dcrs" x="56" y="224" fill="#ccc"/>
    /* -------------------------------------------------------------------------------------------------------------------------------- */
    <defs>
        <symbol id="i_incrs">
            <path d="M3 21h18v-2H3v2zM3 8v8l4-4-4-4zm8 9h10v-2H11v2zM3 3v2h18V3H3zm8 6h10V7H11v2zm0 4h10v-2H11v2z"/>
        </symbol>
    </defs>
    <use xlink:href="#i_incrs" x="84" y="224" fill="#000"/>
    <use xlink:href="#i_incrs" x="112" y="224" fill="red"/>
    <use xlink:href="#i_incrs" x="140" y="224" fill="#ccc"/>
    /* -------------------------------------------------------------------------------------------------------------------------------- */
    <defs>
        <symbol id="l_bllt">
            <path
                d="M4 10.5c-.83 0-1.5.67-1.5 1.5s.67 1.5 1.5 1.5 1.5-.67 1.5-1.5-.67-1.5-1.5-1.5zm0-6c-.83 0-1.5.67-1.5 1.5S3.17 7.5 4 7.5 5.5 6.83 5.5 6 4.83 4.5 4 4.5zm0 12c-.83 0-1.5.68-1.5 1.5s.68 1.5 1.5 1.5 1.5-.68 1.5-1.5-.67-1.5-1.5-1.5zM7 19h14v-2H7v2zm0-6h14v-2H7v2zm0-8v2h14V5H7z"/>
        </symbol>
    </defs>
    <use xlink:href="#l_bllt" x="0" y="252" fill="#000"/>
    <use xlink:href="#l_bllt" x="28" y="252" fill="red"/>
    <use xlink:href="#l_bllt" x="56" y="252" fill="#ccc"/>
    /* -------------------------------------------------------------------------------------------------------------------------------- */
    <defs>
        <symbol id="l_nmbr">
            <path d="M2 17h2v.5H3v1h1v.5H2v1h3v-4H2v1zm1-9h1V4H2v1h1v3zm-1 3h1.8L2 13.1v.9h3v-1H3.2L5 10.9V10H2v1zm5-6v2h14V5H7zm0 14h14v-2H7v2zm0-6h14v-2H7v2z"/>
        </symbol>
    </defs>
    <use xlink:href="#l_nmbr" x="84" y="252" fill="#000"/>
    <use xlink:href="#l_nmbr" x="112" y="252" fill="red"/>
    <use xlink:href="#l_nmbr" x="140" y="252" fill="#ccc"/>
    /* -------------------------------------------------------------------------------------------------------------------------------- */
    <defs>
        <symbol id="eml">
            <path d="M20 4H4c-1.1 0-1.99.9-1.99 2L2 18c0 1.1.9 2 2 2h16c1.1 0 2-.9 2-2V6c0-1.1-.9-2-2-2zm0 4l-8 5-8-5V6l8 5 8-5v2z"/>
        </symbol>
    </defs>
    <use xlink:href="#eml" x="0" y="280" fill="#000"/>
    <use xlink:href="#eml" x="28" y="280" fill="red"/>
    <use xlink:href="#eml" x="56" y="280" fill="#ccc"/>
    /* -------------------------------------------------------------------------------------------------------------------------------- */
    <defs>
        <symbol id="snd">
            <path d="M2.01 21L23 12 2.01 3 2 10l15 2-15 2z"/>
        </symbol>
    </defs>
    <use xlink:href="#snd" x="84" y="280" fill="#000"/>
    <use xlink:href="#snd" x="112" y="280" fill="red"/>
    <use xlink:href="#snd" x="140" y="280" fill="#ccc"/>
    /* -------------------------------------------------------------------------------------------------------------------------------- */
    <defs>
        <symbol id="sttngs">
            <path
                d="M19.43 12.98c.04-.32.07-.64.07-.98s-.03-.66-.07-.98l2.11-1.65c.19-.15.24-.42.12-.64l-2-3.46c-.12-.22-.39-.3-.61-.22l-2.49 1c-.52-.4-1.08-.73-1.69-.98l-.38-2.65C14.46 2.18 14.25 2 14 2h-4c-.25 0-.46.18-.49.42l-.38 2.65c-.61.25-1.17.59-1.69.98l-2.49-1c-.23-.09-.49 0-.61.22l-2 3.46c-.13.22-.07.49.12.64l2.11 1.65c-.04.32-.07.65-.07.98s.03.66.07.98l-2.11 1.65c-.19.15-.24.42-.12.64l2 3.46c.12.22.39.3.61.22l2.49-1c.52.4 1.08.73 1.69.98l.38 2.65c.03.24.24.42.49.42h4c.25 0 .46-.18.49-.42l.38-2.65c.61-.25 1.17-.59 1.69-.98l2.49 1c.23.09.49 0 .61-.22l2-3.46c.12-.22.07-.49-.12-.64l-2.11-1.65zM12 15.5c-1.93 0-3.5-1.57-3.5-3.5s1.57-3.5 3.5-3.5 3.5 1.57 3.5 3.5-1.57 3.5-3.5 3.5z"/>
        </symbol>
    </defs>
    <use xlink:href="#sttngs" x="0" y="308" fill="#000"/>
    <use xlink:href="#sttngs" x="28" y="308" fill="red"/>
    <use xlink:href="#sttngs" x="56" y="308" fill="#6b7c93"/>
    /* -------------------------------------------------------------------------------------------------------------------------------- */
    <defs>
        <symbol id="prsn">
            <path d="M12 12c2.21 0 4-1.79 4-4s-1.79-4-4-4-4 1.79-4 4 1.79 4 4 4zm0 2c-2.67 0-8 1.34-8 4v2h16v-2c0-2.66-5.33-4-8-4z"/>
        </symbol>
    </defs>
    <use xlink:href="#prsn" x="84" y="308" fill="#000"/>
    <use xlink:href="#prsn" x="112" y="308" fill="red"/>
    <use xlink:href="#prsn" x="140" y="308" fill="#ccc"/>

    /* 3 */ /* -------------------------------------------------------------------------------------------------------------------------------- */ /*
    -------------------------------------------------------------------------------------------------------------------------------- */ /*
    -------------------------------------------------------------------------------------------------------------------------------- */ /*
    -------------------------------------------------------------------------------------------------------------------------------- */ /*
    -------------------------------------------------------------------------------------------------------------------------------- */

    <defs>
        <symbol id="add_pht">
            <path
                d="M3 4V1h2v3h3v2H5v3H3V6H0V4h3zm3 6V7h3V4h7l1.83 2H21c1.1 0 2 .9 2 2v12c0 1.1-.9 2-2 2H5c-1.1 0-2-.9-2-2V10h3zm7 9c2.76 0 5-2.24 5-5s-2.24-5-5-5-5 2.24-5 5 2.24 5 5 5zm-3.2-5c0 1.77 1.43 3.2 3.2 3.2s3.2-1.43 3.2-3.2-1.43-3.2-3.2-3.2-3.2 1.43-3.2 3.2z"/>
        </symbol>
    </defs>
    <use xlink:href="#add_pht" x="0" y="336" fill="#000"/>
    <use xlink:href="#add_pht" x="28" y="336" fill="white"/>
    <use xlink:href="#add_pht" x="56" y="336" fill="#ccc"/>
    /* -------------------------------------------------------------------------------------------------------------------------------- */
    <defs>
        <symbol id="hlp">
            <path
                d="M12 2C6.48 2 2 6.48 2 12s4.48 10 10 10 10-4.48 10-10S17.52 2 12 2zm1 17h-2v-2h2v2zm2.07-7.75l-.9.92C13.45 12.9 13 13.5 13 15h-2v-.5c0-1.1.45-2.1 1.17-2.83l1.24-1.26c.37-.36.59-.86.59-1.41 0-1.1-.9-2-2-2s-2 .9-2 2H8c0-2.21 1.79-4 4-4s4 1.79 4 4c0 .88-.36 1.68-.93 2.25z"/>
        </symbol>
    </defs>
    <use xlink:href="#hlp" x="84" y="336" fill="#000"/>
    <use xlink:href="#hlp" x="112" y="336" fill="red"/>
    <use xlink:href="#hlp" x="140" y="336" fill="#ccc"/>
    /* -------------------------------------------------------------------------------------------------------------------------------- */
    <defs>
        <symbol id="grp">
            <path
                d="M16 11c1.66 0 2.99-1.34 2.99-3S17.66 5 16 5c-1.66 0-3 1.34-3 3s1.34 3 3 3zm-8 0c1.66 0 2.99-1.34 2.99-3S9.66 5 8 5C6.34 5 5 6.34 5 8s1.34 3 3 3zm0 2c-2.33 0-7 1.17-7 3.5V19h14v-2.5c0-2.33-4.67-3.5-7-3.5zm8 0c-.29 0-.62.02-.97.05 1.16.84 1.97 1.97 1.97 3.45V19h6v-2.5c0-2.33-4.67-3.5-7-3.5z"/>
        </symbol>
    </defs>
    <use xlink:href="#grp" x="0" y="364" fill="#000"/>
    <use xlink:href="#grp" x="28" y="364" fill="red"/>
    <use xlink:href="#grp" x="56" y="364" fill="#6b7c93"/>
    /* -------------------------------------------------------------------------------------------------------------------------------- */
    <defs>
        <symbol id="inf">
            <path d="M12 2C6.48 2 2 6.48 2 12s4.48 10 10 10 10-4.48 10-10S17.52 2 12 2zm1 15h-2v-6h2v6zm0-8h-2V7h2v2z"/>
        </symbol>
    </defs>
    <use xlink:href="#inf" x="84" y="364" fill="#000"/>
    <use xlink:href="#inf" x="112" y="364" fill="red" />
    <use xlink:href="#inf" x="140" y="364" fill="#6b7c93" />
    /* -------------------------------------------------------------------------------------------------------------------------------- */
    <defs>
        <symbol id="add_nt">
            <path d="M14 2H6c-1.1 0-1.99.9-1.99 2L4 20c0 1.1.89 2 1.99 2H18c1.1 0 2-.9 2-2V8l-6-6zm2 14h-3v3h-2v-3H8v-2h3v-3h2v3h3v2zm-3-7V3.5L18.5 9H13z"/>
        </symbol>
    </defs>
    <use xlink:href="#add_nt" x="0" y="392" fill="#000"/>
    <use xlink:href="#add_nt" x="28" y="392" fill="white"/>
    <use xlink:href="#add_nt" x="56" y="392" fill="#ccc"/>
    /* -------------------------------------------------------------------------------------------------------------------------------- */
    <defs>
        <symbol id="cll">
            <path
                d="M6.62 10.79c1.44 2.83 3.76 5.14 6.59 6.59l2.2-2.2c.27-.27.67-.36 1.02-.24 1.12.37 2.33.57 3.57.57.55 0 1 .45 1 1V20c0 .55-.45 1-1 1-9.39 0-17-7.61-17-17 0-.55.45-1 1-1h3.5c.55 0 1 .45 1 1 0 1.25.2 2.45.57 3.57.11.35.03.74-.25 1.02l-2.2 2.2z"/>
        </symbol>
    </defs>
    <use xlink:href="#cll" x="84" y="392" fill="#000"/>
    <use xlink:href="#cll" x="112" y="392" fill="red"/>
    <use xlink:href="#cll" x="140" y="392" fill="#ccc"/>
    /* -------------------------------------------------------------------------------------------------------------------------------- */
    <defs>
        <symbol id="bnk">
            <path d="M4 10v7h3v-7H4zm6 0v7h3v-7h-3zM2 22h19v-3H2v3zm14-12v7h3v-7h-3zm-4.5-9L2 6v2h19V6l-9.5-5z"/>
        </symbol>
    </defs>
    <use xlink:href="#bnk" x="0" y="420" fill="#000"/>
    <use xlink:href="#bnk" x="28" y="420" fill="red"/>
    <use xlink:href="#bnk" x="56" y="420" fill="#6b7c93"/>
    /* -------------------------------------------------------------------------------------------------------------------------------- */
    <defs>
        <symbol id="bsnss">
            <path d="M12 7V3H2v18h20V7H12zM6 19H4v-2h2v2zm0-4H4v-2h2v2zm0-4H4V9h2v2zm0-4H4V5h2v2zm4 12H8v-2h2v2zm0-4H8v-2h2v2zm0-4H8V9h2v2zm0-4H8V5h2v2zm10 12h-8v-2h2v-2h-2v-2h2v-2h-2V9h8v10zm-2-8h-2v2h2v-2zm0 4h-2v2h2v-2z"/>
        </symbol>
    </defs>
    <use xlink:href="#bsnss" x="84" y="420" fill="#ccc"/>
    <use xlink:href="#bsnss" x="112" y="420" fill="#ccc"/>
    <use xlink:href="#bsnss" x="140" y="420" fill="#6b7c93"/>
    /* -------------------------------------------------------------------------------------------------------------------------------- */
    <defs>
        <symbol id="cht">
            <path d="M20 2H4c-1.1 0-1.99.9-1.99 2L2 22l4-4h14c1.1 0 2-.9 2-2V4c0-1.1-.9-2-2-2zM6 9h12v2H6V9zm8 5H6v-2h8v2zm4-6H6V6h12v2z"/>
        </symbol>
    </defs>
    <use xlink:href="#cht" x="0" y="448" fill="#000"/>
    <use xlink:href="#cht" x="28" y="448" fill="red"/>
    <use xlink:href="#cht" x="56" y="448" fill="#ccc"/>
    /* -------------------------------------------------------------------------------------------------------------------------------- */
    <defs>
        <symbol id="srch">
            <path d="M15.5 14h-.79l-.28-.27C15.41 12.59 16 11.11 16 9.5 16 5.91 13.09 3 9.5 3S3 5.91 3 9.5 5.91 16 9.5 16c1.61 0 3.09-.59 4.23-1.57l.27.28v.79l5 4.99L20.49 19l-4.99-5zm-6 0C7.01 14 5 11.99 5 9.5S7.01 5 9.5 5 14 7.01 14 9.5 11.99 14 9.5 14z"/>
        </symbol>
    </defs>
    <use xlink:href="#srch" x="84" y="448" fill="#000"/>
    <use xlink:href="#srch" x="112" y="448" fill="red"/>
    <use xlink:href="#srch" x="140" y="448" fill="#ccc"/>
    /* -------------------------------------------------------------------------------------------------------------------------------- */
    <defs>
        <symbol id="tlc">
            <path d="M10 4v3h2.21l-3.42 8H6v3h8v-3h-2.21l3.42-8H18V4z"/>
        </symbol>
    </defs>
    <use xlink:href="#tlc" x="0" y="476" fill="#000"/>
    <use xlink:href="#tlc" x="28" y="476" fill="red"/>
    <use xlink:href="#tlc" x="56" y="476" fill="#ccc"/>
    /* -------------------------------------------------------------------------------------------------------------------------------- */
    <defs>
        <symbol id="blck">
            <path d="M12 2C6.48 2 2 6.48 2 12s4.48 10 10 10 10-4.48 10-10S17.52 2 12 2zM4 12c0-4.42 3.58-8 8-8 1.85 0 3.55.63 4.9 1.69L5.69 16.9C4.63 15.55 4 13.85 4 12zm8 8c-1.85 0-3.55-.63-4.9-1.69L18.31 7.1C19.37 8.45 20 10.15 20 12c0 4.42-3.58 8-8 8z"/>
        </symbol>
    </defs>
    <use xlink:href="#blck" x="84" y="476" fill="#000"/>
    <use xlink:href="#blck" x="112" y="476" fill="red"/>
    <use xlink:href="#blck" x="140" y="476" fill="#ccc"/>

    /* 4 */ /* -------------------------------------------------------------------------------------------------------------------------------- */ /*
    -------------------------------------------------------------------------------------------------------------------------------- */ /*
    -------------------------------------------------------------------------------------------------------------------------------- */ /*
    -------------------------------------------------------------------------------------------------------------------------------- */ /*
    -------------------------------------------------------------------------------------------------------------------------------- */

    <defs>
        <symbol id="nw_rlss">
            <path d="M23 12l-2.44-2.78.34-3.68-3.61-.82-1.89-3.18L12 3 8.6 1.54 6.71 4.72l-3.61.81.34 3.68L1 12l2.44 2.78-.34 3.69 3.61.82 1.89 3.18L12 21l3.4 1.46 1.89-3.18 3.61-.82-.34-3.68L23 12zm-10 5h-2v-2h2v2zm0-4h-2V7h2v6z"/>
        </symbol>
    </defs>
    <use xlink:href="#nw_rlss" x="0" y="504" fill="#000"/>
    <use xlink:href="#nw_rlss" x="28" y="504" fill="red"/>
    <use xlink:href="#nw_rlss" x="56" y="504" fill="#6b7c93"/>
    /* -------------------------------------------------------------------------------------------------------------------------------- */
    <defs>
        <symbol id="vrfd_sr">
            <path d="M12 1L3 5v6c0 5.55 3.84 10.74 9 12 5.16-1.26 9-6.45 9-12V5l-9-4zm-2 16l-4-4 1.41-1.41L10 14.17l6.59-6.59L18 9l-8 8z"/>
        </symbol>
    </defs>
    <use xlink:href="#vrfd_sr" x="84" y="504" fill="#5FBA7D"/>
    <use xlink:href="#vrfd_sr" x="112" y="504" fill="#000"/>
    <use xlink:href="#vrfd_sr" x="140" y="504" fill="coral"/>
    /* -------------------------------------------------------------------------------------------------------------------------------- */
    <defs>
        <symbol id="lctn">
            <path d="M12 2C8.13 2 5 5.13 5 9c0 5.25 7 13 7 13s7-7.75 7-13c0-3.87-3.13-7-7-7zm0 9.5c-1.38 0-2.5-1.12-2.5-2.5s1.12-2.5 2.5-2.5 2.5 1.12 2.5 2.5-1.12 2.5-2.5 2.5z"/>
        </symbol>
    </defs>
    <use xlink:href="#lctn" x="0" y="532" fill="lightgray"/>
    <use xlink:href="#lctn" x="28" y="532" fill="dodgerblue"/>
    <use xlink:href="#lctn" x="56" y="532" fill="#6b7c93"/>
    /* -------------------------------------------------------------------------------------------------------------------------------- */
    <defs>
        <symbol id="rprt">
            <path d="M1 21h22L12 2 1 21zm12-3h-2v-2h2v2zm0-4h-2v-4h2v4z"/>
        </symbol>
    </defs>
    <use xlink:href="#rprt" x="84" y="532" fill="#000"/>
    <use xlink:href="#rprt" x="112" y="532" fill="red"/>
    <use xlink:href="#rprt" x="140" y="532" fill="#6b7c93"/>
    /* -------------------------------------------------------------------------------------------------------------------------------- */
    <defs>
        <symbol id="prnt">
            <path d="M19 8H5c-1.66 0-3 1.34-3 3v6h4v4h12v-4h4v-6c0-1.66-1.34-3-3-3zm-3 11H8v-5h8v5zm3-7c-.55 0-1-.45-1-1s.45-1 1-1 1 .45 1 1-.45 1-1 1zm-1-9H6v4h12V3z"/>
        </symbol>
    </defs>
    <use xlink:href="#prnt" x="0" y="560" fill="#000"/>
    <use xlink:href="#prnt" x="28" y="560" fill="red"/>
    <use xlink:href="#prnt" x="56" y="560" fill="#ccc"/>
    /* -------------------------------------------------------------------------------------------------------------------------------- */
    <defs>
        <symbol id="pymnt">
            <path d="M20 4H4c-1.11 0-1.99.89-1.99 2L2 18c0 1.11.89 2 2 2h16c1.11 0 2-.89 2-2V6c0-1.11-.89-2-2-2zm0 14H4v-6h16v6zm0-10H4V6h16v2z"/>
        </symbol>
    </defs>
    <use xlink:href="#pymnt" x="84" y="560" fill="#000"/>
    <use xlink:href="#pymnt" x="112" y="560" fill="red"/>
    <use xlink:href="#pymnt" x="140" y="560" fill="#ccc"/>
    /* -------------------------------------------------------------------------------------------------------------------------------- */
    <defs>
        <symbol id="hm">
            <path d="M10 20v-6h4v6h5v-8h3L12 3 2 12h3v8z"/>
        </symbol>
    </defs>
    <use xlink:href="#hm" x="0" y="588" fill="#000"/>
    <use xlink:href="#hm" x="28" y="588" fill="red"/>
    <use xlink:href="#hm" x="56" y="588" fill="#ccc"/>
    /* -------------------------------------------------------------------------------------------------------------------------------- */
    <defs>
        <symbol id="ndrln">
            <path d="M12 17c3.31 0 6-2.69 6-6V3h-2.5v8c0 1.93-1.57 3.5-3.5 3.5S8.5 12.93 8.5 11V3H6v8c0 3.31 2.69 6 6 6zm-7 2v2h14v-2H5z"/>
        </symbol>
    </defs>
    <use xlink:href="#ndrln" x="84" y="588" fill="#000"/>
    <use xlink:href="#ndrln" x="112" y="588" fill="red"/>
    <use xlink:href="#ndrln" x="140" y="588" fill="#ccc"/>
    /* -------------------------------------------------------------------------------------------------------------------------------- */
    <defs>
        <symbol id="pblc">
            <path
                d="M12 2C6.48 2 2 6.48 2 12s4.48 10 10 10 10-4.48 10-10S17.52 2 12 2zm-1 17.93c-3.95-.49-7-3.85-7-7.93 0-.62.08-1.21.21-1.79L9 15v1c0 1.1.9 2 2 2v1.93zm6.9-2.54c-.26-.81-1-1.39-1.9-1.39h-1v-3c0-.55-.45-1-1-1H8v-2h2c.55 0 1-.45 1-1V7h2c1.1 0 2-.9 2-2v-.41c2.93 1.19 5 4.06 5 7.41 0 2.08-.8 3.97-2.1 5.39z"/>
        </symbol>
    </defs>
    <use xlink:href="#pblc" x="0" y="616" fill="#525252"/>
    <use xlink:href="#pblc" x="28" y="616" fill="white"/>
    <use xlink:href="#pblc" x="56" y="616" fill="#ccc"/>
    /* -------------------------------------------------------------------------------------------------------------------------------- */

    <defs>
        <symbol id="wrk">
            <path d="M20 6h-4V4c0-1.11-.89-2-2-2h-4c-1.11 0-2 .89-2 2v2H4c-1.11 0-1.99.89-1.99 2L2 19c0 1.11.89 2 2 2h16c1.11 0 2-.89 2-2V8c0-1.11-.89-2-2-2zm-6 0h-4V4h4v2z"/>
        </symbol>
    </defs>
    <use xlink:href="#wrk" x="84" y="616" fill="#ccc"/>
    <use xlink:href="#wrk" x="112" y="616" fill="#ffd627"/>
    <use xlink:href="#wrk" x="140" y="616" fill="#6b7c93"/>
    /* -------------------------------------------------------------------------------------------------------------------------------- */
    <defs>
        <symbol id="fl">
            <path d="M6 2c-1.1 0-1.99.9-1.99 2L4 20c0 1.1.89 2 1.99 2H18c1.1 0 2-.9 2-2V8l-6-6H6zm7 7V3.5L18.5 9H13z" transform="scale(2.75)"/>
        </symbol>
    </defs>
    <use xlink:href="#fl" x="-10" y="638" fill="#f42506"/>
    <use xlink:href="#fl" x="44" y="638" fill="#7cbb00"/>
    <use xlink:href="#fl" x="98" y="638" fill="#00014b"/>
    <use xlink:href="#fl" x="-10" y="705" fill="#f2a24b"/>
    <use xlink:href="#fl" x="44" y="705" fill="#00a1f1"/>
    <use xlink:href="#fl" x="98" y="705" fill="#ff6f69"/>
    <!--
  <use xlink:href="#fl" x="84" y="616" fill="#f42506" />
  <use xlink:href="#fl" x="112" y="616"  fill="#7cbb00" />
  <use xlink:href="#fl" x="140" y="616"  fill="#00014b" />
    <use xlink:href="#fl" x="0" y="644" fill="#f2a24b" />
  <use xlink:href="#fl" x="28" y="644"  fill="#00a1f1" />
  <use xlink:href="#fl" x="56" y="644"  fill="#ff6f69" />
  -->
    /* 5 */ /* -------------------------------------------------------------------------------------------------------------------------------- */ /*
    -------------------------------------------------------------------------------------------------------------------------------- */ /*
    -------------------------------------------------------------------------------------------------------------------------------- */ /*
    -------------------------------------------------------------------------------------------------------------------------------- */ /*
    -------------------------------------------------------------------------------------------------------------------------------- */
    <defs>
        <symbol id="add_box">
            <path d="M4 6H2v14c0 1.1.9 2 2 2h14v-2H4V6zm16-4H8c-1.1 0-2 .9-2 2v12c0 1.1.9 2 2 2h12c1.1 0 2-.9 2-2V4c0-1.1-.9-2-2-2zm-1 9h-4v4h-2v-4H9V9h4V5h2v4h4v2z"/>
        </symbol>
    </defs>
    <use xlink:href="#add_box" x="0" y="784" fill="#000"/>
    <use xlink:href="#add_box" x="28" y="784" fill="red"/>
    <use xlink:href="#add_box" x="56" y="784" fill="#6b7c93"/>

    /* -------------------------------------------------------------------------------------------------------------------------------- */
    <defs>
        <symbol id="view_module">
            <path d="M4 11h5V5H4v6zm0 7h5v-6H4v6zm6 0h5v-6h-5v6zm6 0h5v-6h-5v6zm-6-7h5V5h-5v6zm6-6v6h5V5h-5z"/>
        </symbol>
    </defs>
    <use xlink:href="#view_module" x="84" y="784" fill="#000"/>
    <use xlink:href="#view_module" x="112" y="784" fill="red"/>
    <use xlink:href="#view_module" x="140" y="784" fill="#6b7c93"/>
    /* -------------------------------------------------------------------------------------------------------------------------------- */

    <defs>
        <symbol id="done_all">

	<path d="M18 7l-1.41-1.41-6.34 6.34 1.41 1.41L18 7zm4.24-1.41L11.66 16.17 7.48 12l-1.41 1.41L11.66 19l12-12-1.42-1.41zM.41 13.41L6 19l1.41-1.41L1.83 12 .41 13.41z"/>
           
        </symbol>
    </defs>
    <use xlink:href="#done_all" x="0" y="812" fill="#85bb65"/>
    <use xlink:href="#done_all" x="28" y="812" fill="red"/>
    <use xlink:href="#done_all" x="56" y="812" fill="#6b7c93"/>
    /* -------------------------------------------------------------------------------------------------------------------------------- */
	/*<path d="M21 6h-2v9H6v2c0 .55.45 1 1 1h11l4 4V7c0-.55-.45-1-1-1zm-4 6V3c0-.55-.45-1-1-1H3c-.55 0-1 .45-1 1v14l4-4h10c.55 0 1-.45 1-1z"/>*/
    <defs>
        <symbol id="forum">
            
			<path d="M-74 29h48v48h-48V29zM0 0h24v24H0V0zm0 0h24v24H0V0z" fill="none"/>
    <path d="M4 12h7v1.5h-7zm0-2.5h7V11h-7zm0 5h7V16h-7zM12 4H3c-1.1 0-2 .9-2 2v13c0 1.1.9 2 2 2h18c1.1 0 2-.9 2-2V6c0-1.1-.9-2-2-2zm0 15h-9V6h9v13z"/>
	<path d="M35 10.9c-2.27-.59-3-1.2-3-2.15 0-1.09 1.01-1.85 2.7-1.85 1.78 0 2.44.85 2.5 2.1h2.21c-.07-1.72-1.12-3.3-3.21-3.81V3h-3v2.16c-1.94.42-3.5 1.68-3.5 3.61 0 2.31 1.91 3.46 4.7 4.13 2.5.6 3 1.48 3 2.41 0 .69-.49 1.79-2.7 1.79-2.06 0-2.87-.92-2.98-2.1h-2.2c.12 2.19 1.76 3.42 3.68 3.83V21h3v-2.15c1.95-.37 3.5-1.5 3.5-3.55 0-2.84-2.43-3.81-4.7-4.4z" transform="scale(0.5) translate(0,12)" fill="#fff"/>
        </symbol>
    </defs>
    <use xlink:href="#forum" x="84" y="812" fill="#6b7c93"/>
    <use xlink:href="#forum" x="112" y="812" fill="red"/>
    <use xlink:href="#forum" x="140" y="812" fill="#ccc"/>
    /* -------------------------------------------------------------------------------------------------------------------------------- */
    <defs>
        <symbol id="tel">
            <path
                d="M17.256 12.253c-0.096-0.667-0.611-1.187-1.274-1.342-2.577-0.604-3.223-2.088-3.332-3.734-0.457-0.085-1.27-0.177-2.65-0.177s-2.193 0.092-2.65 0.177c-0.109 1.646-0.755 3.13-3.332 3.734-0.663 0.156-1.178 0.675-1.274 1.342l-0.497 3.442c-0.175 1.212 0.715 2.305 1.953 2.305h11.6c1.237 0 2.128-1.093 1.953-2.305l-0.497-3.442zM10 15.492c-1.395 0-2.526-1.12-2.526-2.5s1.131-2.5 2.526-2.5 2.526 1.12 2.526 2.5-1.132 2.5-2.526 2.5zM19.95 6c-0.024-1.5-3.842-3.999-9.95-4-6.109 0.001-9.927 2.5-9.95 4s0.021 3.452 2.535 3.127c2.941-0.381 2.76-1.408 2.76-2.876 0-1.024 2.392-1.271 4.655-1.271s4.654 0.247 4.655 1.271c0 1.468-0.181 2.495 2.76 2.876 2.513 0.325 2.558-1.627 2.535-3.127z"/>
        </symbol>
    </defs>
    <use xlink:href="#tel" x="0" y="840" fill="#000"/>
    <use xlink:href="#tel" x="28" y="840" fill="red"/>
    <use xlink:href="#tel" x="56" y="840" fill="#ccc"/>
    /* -------------------------------------------------------------------------------------------------------------------------------- */
    <defs>
        <symbol id="fax">
            <path
                d="M4.5 6c1.375 0 2.5 1.125 2.5 2.5v17c0 1.375-1.125 2.5-2.5 2.5h-2c-1.375 0-2.5-1.125-2.5-2.5v-17c0-1.375 1.125-2.5 2.5-2.5h2zM26 8.547c1.188 0.688 2 1.984 2 3.453v12c0 2.203-1.797 4-4 4h-13.5c-1.375 0-2.5-1.125-2.5-2.5v-24c0-0.828 0.672-1.5 1.5-1.5h10.5c0.828 0 1.984 0.484 2.562 1.062l2.375 2.375c0.578 0.578 1.062 1.734 1.062 2.562v2.547zM14.5 24v-2c0-0.281-0.219-0.5-0.5-0.5h-2c-0.281 0-0.5 0.219-0.5 0.5v2c0 0.281 0.219 0.5 0.5 0.5h2c0.281 0 0.5-0.219 0.5-0.5zM14.5 20v-2c0-0.281-0.219-0.5-0.5-0.5h-2c-0.281 0-0.5 0.219-0.5 0.5v2c0 0.281 0.219 0.5 0.5 0.5h2c0.281 0 0.5-0.219 0.5-0.5zM14.5 16v-2c0-0.281-0.219-0.5-0.5-0.5h-2c-0.281 0-0.5 0.219-0.5 0.5v2c0 0.281 0.219 0.5 0.5 0.5h2c0.281 0 0.5-0.219 0.5-0.5zM18.5 24v-2c0-0.281-0.219-0.5-0.5-0.5h-2c-0.281 0-0.5 0.219-0.5 0.5v2c0 0.281 0.219 0.5 0.5 0.5h2c0.281 0 0.5-0.219 0.5-0.5zM18.5 20v-2c0-0.281-0.219-0.5-0.5-0.5h-2c-0.281 0-0.5 0.219-0.5 0.5v2c0 0.281 0.219 0.5 0.5 0.5h2c0.281 0 0.5-0.219 0.5-0.5zM18.5 16v-2c0-0.281-0.219-0.5-0.5-0.5h-2c-0.281 0-0.5 0.219-0.5 0.5v2c0 0.281 0.219 0.5 0.5 0.5h2c0.281 0 0.5-0.219 0.5-0.5zM22.5 24v-2c0-0.281-0.219-0.5-0.5-0.5h-2c-0.281 0-0.5 0.219-0.5 0.5v2c0 0.281 0.219 0.5 0.5 0.5h2c0.281 0 0.5-0.219 0.5-0.5zM22.5 20v-2c0-0.281-0.219-0.5-0.5-0.5h-2c-0.281 0-0.5 0.219-0.5 0.5v2c0 0.281 0.219 0.5 0.5 0.5h2c0.281 0 0.5-0.219 0.5-0.5zM22.5 16v-2c0-0.281-0.219-0.5-0.5-0.5h-2c-0.281 0-0.5 0.219-0.5 0.5v2c0 0.281 0.219 0.5 0.5 0.5h2c0.281 0 0.5-0.219 0.5-0.5zM24 10v-4h-2.5c-0.828 0-1.5-0.672-1.5-1.5v-2.5h-10v8h14z"
                transform="scale(0.65)"/>
        </symbol>
    </defs>
    <use xlink:href="#fax" x="84" y="840" fill="#000"/>
    <use xlink:href="#fax" x="112" y="840" fill="red"/>
    <use xlink:href="#fax" x="140" y="840" fill="#ccc"/>
/* -------------------------------------------------------------------------------------------------------------------------------- */
    <defs>
        <symbol id="at">
            <path
                d="M15.188 12.109c0-2.25-1.172-3.594-3.141-3.594-2.594 0-5.375 2.578-5.375 6.75 0 2.328 1.156 3.656 3.187 3.656 3.141 0 5.328-3.594 5.328-6.813zM24 14c0 4.859-3.469 6.687-6.438 6.781-0.203 0-0.281 0.016-0.5 0.016-0.969 0-1.734-0.281-2.219-0.828-0.297-0.344-0.469-0.781-0.516-1.297-0.969 1.219-2.656 2.406-4.766 2.406-3.359 0-5.281-2.078-5.281-5.703 0-4.984 3.453-9.031 7.672-9.031 1.828 0 3.297 0.781 4.078 2.109l0.031-0.297 0.172-0.875c0.016-0.125 0.125-0.281 0.234-0.281h1.844c0.078 0 0.156 0.109 0.203 0.172 0.047 0.047 0.063 0.172 0.047 0.25l-1.875 9.594c-0.063 0.297-0.078 0.531-0.078 0.75 0 0.844 0.25 1.016 0.891 1.016 1.062-0.031 4.5-0.469 4.5-4.781 0-6.078-3.922-10-10-10-5.516 0-10 4.484-10 10s4.484 10 10 10c2.297 0 4.547-0.797 6.328-2.25 0.219-0.187 0.531-0.156 0.703 0.063l0.641 0.766c0.078 0.109 0.125 0.234 0.109 0.375-0.016 0.125-0.078 0.25-0.187 0.344-2.125 1.734-4.828 2.703-7.594 2.703-6.609 0-12-5.391-12-12s5.391-12 12-12c7.172 0 12 4.828 12 12z"
                transform="scale(0.65)"/>
        </symbol>
    </defs>
    <use xlink:href="#at" x="3" y="872" fill="#000"/>
    <use xlink:href="#at" x="31" y="872" fill="red"/>
    <use xlink:href="#at" x="59" y="872" fill="#ccc"/>
    /* -------------------------------------------------------------------------------------------------------------------------------- */
 <defs>
        <symbol id="web">
            <path
                d="M15 2c-8.284 0-15 6.716-15 15s6.716 15 15 15c8.284 0 15-6.716 15-15s-6.716-15-15-15zM23.487 22c0.268-1.264 0.437-2.606 0.492-4h3.983c-0.104 1.381-0.426 2.722-0.959 4h-3.516zM6.513 12c-0.268 1.264-0.437 2.606-0.492 4h-3.983c0.104-1.381 0.426-2.722 0.959-4h3.516zM21.439 12c0.3 1.28 0.481 2.62 0.54 4h-5.979v-4h5.439zM16 10v-5.854c0.456 0.133 0.908 0.355 1.351 0.668 0.831 0.586 1.625 1.488 2.298 2.609 0.465 0.775 0.867 1.638 1.203 2.578h-4.852zM10.351 7.422c0.673-1.121 1.467-2.023 2.298-2.609 0.443-0.313 0.895-0.535 1.351-0.668v5.854h-4.852c0.336-0.94 0.738-1.803 1.203-2.578zM14 12v4h-5.979c0.059-1.38 0.24-2.72 0.54-4h5.439zM2.997 22c-0.533-1.278-0.854-2.619-0.959-4h3.983c0.055 1.394 0.224 2.736 0.492 4h-3.516zM8.021 18h5.979v4h-5.439c-0.3-1.28-0.481-2.62-0.54-4zM14 24v5.854c-0.456-0.133-0.908-0.355-1.351-0.668-0.831-0.586-1.625-1.488-2.298-2.609-0.465-0.775-0.867-1.638-1.203-2.578h4.852zM19.649 26.578c-0.673 1.121-1.467 2.023-2.298 2.609-0.443 0.312-0.895 0.535-1.351 0.668v-5.854h4.852c-0.336 0.94-0.738 1.802-1.203 2.578zM16 22v-4h5.979c-0.059 1.38-0.24 2.72-0.54 4h-5.439zM23.98 16c-0.055-1.394-0.224-2.736-0.492-4h3.516c0.533 1.278 0.855 2.619 0.959 4h-3.983zM25.958 10h-2.997c-0.582-1.836-1.387-3.447-2.354-4.732 1.329 0.636 2.533 1.488 3.585 2.54 0.671 0.671 1.261 1.404 1.766 2.192zM5.808 7.808c1.052-1.052 2.256-1.904 3.585-2.54-0.967 1.285-1.771 2.896-2.354 4.732h-2.997c0.504-0.788 1.094-1.521 1.766-2.192zM4.042 24h2.997c0.583 1.836 1.387 3.447 2.354 4.732-1.329-0.636-2.533-1.488-3.585-2.54-0.671-0.671-1.261-1.404-1.766-2.192zM24.192 26.192c-1.052 1.052-2.256 1.904-3.585 2.54 0.967-1.285 1.771-2.896 2.354-4.732h2.997c-0.504 0.788-1.094 1.521-1.766 2.192z"
                transform="scale(0.65)"/>
        </symbol>
    </defs>
    <use xlink:href="#web" x="84" y="868" fill="#000"/>
    <use xlink:href="#web" x="112" y="868" fill="red"/>
    <use xlink:href="#web" x="140" y="868" fill="#ccc"/>
/* -------------------------------------------------------------------------------------------------------------------------------- */
    <defs>
        <symbol id="translate">
            <path
                d="M12.87 15.07l-2.54-2.51.03-.03c1.74-1.94 2.98-4.17 3.71-6.53H17V4h-7V2H8v2H1v1.99h11.17C11.5 7.92 10.44 9.75 9 11.35 8.07 10.32 7.3 9.19 6.69 8h-2c.73 1.63 1.73 3.17 2.98 4.56l-5.09 5.02L4 19l5-5 3.11 3.11.76-2.04zM18.5 10h-2L12 22h2l1.12-3h4.75L21 22h2l-4.5-12zm-2.62 7l1.62-4.33L19.12 17h-3.24z"/>
        </symbol>
    </defs>
    <use xlink:href="#translate" x="0" y="896" fill="#000"/>
    <use xlink:href="#translate" x="28" y="896" fill="red"/>
    <use xlink:href="#translate" x="56" y="896" fill="#ccc"/>
/* -------------------------------------------------------------------------------------------------------------------------------- */
    <defs>
        <symbol id="view_list">
            <path d="M4 14h4v-4H4v4zm0 5h4v-4H4v4zM4 9h4V5H4v4zm5 5h12v-4H9v4zm0 5h12v-4H9v4zM9 5v4h12V5H9z"/>
        </symbol>
    </defs>
    <use xlink:href="#view_list" x="84" y="896" fill="#000"/>
    <use xlink:href="#view_list" x="112" y="896" fill="red"/>
    <use xlink:href="#view_list" x="140" y="896" fill="#ccc"/>
/* -------------------------------------------------------------------------------------------------------------------------------- */
    <defs>
        <symbol id="view_stream">
            <path d="M4 18h17v-6H4v6zM4 5v6h17V5H4z"/>
        </symbol>
    </defs>
    <use xlink:href="#view_stream" x="0" y="924" fill="#000"/>
    <use xlink:href="#view_stream" x="28" y="924" fill="red"/>
    <use xlink:href="#view_stream" x="56" y="924" fill="#ccc"/>
/* -------------------------------------------------------------------------------------------------------------------------------- */
    <defs>
        <symbol id="add_photo_doc">
            <path d="M22 13h-8v-2h8v2zm0-6h-8v2h8V7zm-8 10h8v-2h-8v2zm-2-8v6c0 1.1-.9 2-2 2H4c-1.1 0-2-.9-2-2V9c0-1.1.9-2 2-2h6c1.1 0 2 .9 2 2zm-1.5 6l-2.25-3-1.75 2.26-1.25-1.51L3.5 15h7z"/>
        </symbol>
    </defs>
    <use xlink:href="#add_photo_doc" x="84" y="924" fill="#000"/>
    <use xlink:href="#add_photo_doc" x="112" y="924" fill="red"/>
    <use xlink:href="#add_photo_doc" x="140" y="924" fill="#ccc"/>

/* -------------------------------------------------------------------------------------------------------------------------------- */
    <defs>
    <symbol id="devlet">
	<path d="M15 11V5l-3-3-3 3v2H3v14h18V11h-6zm-8 8H5v-2h2v2zm0-4H5v-2h2v2zm0-4H5V9h2v2zm6 8h-2v-2h2v2zm0-4h-2v-2h2v2zm0-4h-2V9h2v2zm0-4h-2V5h2v2zm6 12h-2v-2h2v2zm0-4h-2v-2h2v2z"/>
	</symbol>
    </defs>
	<use xlink:href="#devlet" x="112" y="140" fill="#ccc"/>
/* -------------------------------------------------------------------------------------------------------------------------------- */
    <defs>
    <symbol id="hs_ekle">
<path d="M19 3H5c-1.11 0-2 .9-2 2v14c0 1.1.89 2 2 2h14c1.1 0 2-.9 2-2V5c0-1.1-.9-2-2-2zm-2 10h-4v4h-2v-4H7v-2h4V7h2v4h4v2z"/>
	</symbol>
    </defs>
	<use xlink:href="#hs_ekle" x="0" y="952" fill="#ccc"/>
	<use xlink:href="#hs_ekle" x="28" y="952" fill="#6b7c93"/>
/* -------------------------------------------------------------------------------------------------------------------------------- */
    <defs>
    <symbol id="m_sil">
<path d="M15 16h4v2h-4zm0-8h7v2h-7zm0 4h6v2h-6zM3 18c0 1.1.9 2 2 2h6c1.1 0 2-.9 2-2V8H3v10zM14 5h-3l-1-1H6L5 5H2v2h12z"/>
	</symbol>
    </defs>
	<use xlink:href="#m_sil" x="56" y="952" fill="#ccc"/>
	<use xlink:href="#m_sil" x="84" y="952" fill="#6b7c93"/>
/* -------------------------------------------------------------------------------------------------------------------------------- */
    <defs>
    <symbol id="sag_ok">
<path d="M8.59 16.34l4.58-4.59-4.58-4.59L10 5.75l6 6-6 6z"/>
	</symbol>
    </defs>
	<use xlink:href="#sag_ok" x="112" y="952" fill="#ccc"/>
	<use xlink:href="#sag_ok" x="140" y="952" fill="#6b7c93"/>
/* -------------------------------------------------------------------------------------------------------------------------------- */
<defs>
    <symbol id="etiket" >
<path d="M17.63 5.84C17.27 5.33 16.67 5 16 5L5 5.01C3.9 5.01 3 5.9 3 7v10c0 1.1.9 1.99 2 1.99L16 19c.67 0 1.27-.33 1.63-.84L22 12l-4.37-6.16z" />
	</symbol>
    </defs>
	<use xlink:href="#etiket" x="0" y="981" fill="#6b7c93"/>
    <use xlink:href="#etiket" x="41" y="1310" transform="scale(0.75)" fill="#6b7c93" />
/* -------------------------------------------------------------------------------------------------------------------------------- */
    <defs>
    <symbol id="goz">
<path d="M12 4.5C7 4.5 2.73 7.61 1 12c1.73 4.39 6 7.5 11 7.5s9.27-3.11 11-7.5c-1.73-4.39-6-7.5-11-7.5zM12 17c-2.76 0-5-2.24-5-5s2.24-5 5-5 5 2.24 5 5-2.24 5-5 5zm0-8c-1.66 0-3 1.34-3 3s1.34 3 3 3 3-1.34 3-3-1.34-3-3-3z"/>
	</symbol>
    </defs>
	<use xlink:href="#goz" x="56" y="980" fill="#ccc"/>
	<use xlink:href="#goz" x="84" y="980" fill="#6b7c93" />
/* -------------------------------------------------------------------------------------------------------------------------------- */
    <defs>
    <symbol id="pager_sag">
<path d="M8.59 16.34l4.58-4.59-4.58-4.59L10 5.75l6 6-6 6z"/>
	</symbol>
    </defs>
	<use xlink:href="#pager_sag" x="112" y="980" fill="#6b7c93"/>
/* -------------------------------------------------------------------------------------------------------------------------------- */
    <defs>
    <symbol id="pager_sol">
<path d="M15.41 16.09l-4.58-4.59 4.58-4.59L14 5.5l-6 6 6 6z"/>
	</symbol>
    </defs>
	<use xlink:href="#pager_sol" x="140" y="980" fill="#6b7c93"/>
/* -------------------------------------------------------------------------------------------------------------------------------- */
    <defs>
    <symbol id="kargo">
<g transform="scale(0.04)"><polygon fill="#414751" points="252.356,83.527 171.098,3.664 15.603,111.046 66.727,188.033  "/><polygon fill="#414751" points="252.356,293.467 66.727,188.966 5.341,249.654 171.703,377.173  "/><polygon fill="#414751" points="253.315,330.309 168.21,406.649 62.527,334.889 63.312,401.822 251.642,508.337 437.258,400.204    437.258,340.216 331.1,406.937  "/><polygon fill="#414751" points="254.276,293.467 332.146,377.727 494.026,255.138 439.906,188.966  "/><polygon fill="#414751" points="508,116.016 355.551,3.664 254.276,83.527 439.906,188.033"/></g>
	</symbol>
    </defs>
	<use xlink:href="#kargo" x="0" y="1008" fill="#6b7c93"/>
/* -------------------------------------------------------------------------------------------------------------------------------- */
    <defs>
    <symbol id="filter_list">
<path d="M10 18h4v-2h-4v2zM3 6v2h18V6H3zm3 7h12v-2H6v2z"/>
	</symbol>
    </defs>
	<use xlink:href="#filter_list" x="28" y="1008" fill="#6b7c93"/>
  /* -------------------------------------------------------------------------------------------------------------------------------- */
      <defs>
      <symbol id="menu_2">
  <path d="M3 18h18v-2H3v2zm0-5h18v-2H3v2zm0-7v2h18V6H3z"/>
  	</symbol>
      </defs>
  	<use xlink:href="#menu_2" x="56" y="1008" fill="#fbfbfb"/>
    /* -------------------------------------------------------------------------------------------------------------------------------- */
        <defs>
        <symbol id="dropdown">
    <path d="M7 10l5 5 5-5z"/>
    	</symbol>
        </defs>
    	<use xlink:href="#dropdown" x="84" y="1008" fill="#ff1a1a"/>
     /* -------------------------------------------------------------------------------------------------------------------------------- */
          <defs>
          <symbol id="dropup">
      <path d="M7 14l5-5 5 5z"/>
      	</symbol>
          </defs>
      	<use xlink:href="#dropup" x="112" y="1008" fill="#85bb65"/>
 /* -------------------------------------------------------------------------------------------------------------------------------- */

    <defs>
        <symbol id="ozel"><g transform="scale(0.01)"><path d="M1254 581l293-293-107-107-293 293zm447-293q0 27-18 45l-1286 1286q-18 18-45 18t-45-18l-198-198q-18-18-18-45t18-45l1286-1286q18-18 45-18t45 18l198 198q18 18 18 45zm-1351-190l98 30-98 30-30 98-30-98-98-30 98-30 30-98zm350 162l196 60-196 60-60 196-60-196-196-60 196-60 60-196zm930 478l98 30-98 30-30 98-30-98-98-30 98-30 30-98zm-640-640l98 30-98 30-30 98-30-98-98-30 98-30 30-98z"/></g></symbol>
    </defs>
    <use xlink:href="#ozel" x="0" y="1036" fill="#ccc"/>
	<use xlink:href="#ozel_2" x="28" y="1036" fill="#6b7c93"/>
 /* -------------------------------------------------------------------------------------------------------------------------------- */
        <defs>
        <symbol id="cikis">

<path d="M0 0h24v24H0z" fill="none"/>
    <path d="M10.09 15.59L11.5 17l5-5-5-5-1.41 1.41L12.67 11H3v2h9.67l-2.58 2.59zM19 3H5c-1.11 0-2 .9-2 2v4h2V5h14v14H5v-4H3v4c0 1.1.89 2 2 2h14c1.1 0 2-.9 2-2V5c0-1.1-.9-2-2-2z"/>

      	</symbol>
          </defs>
           <use xlink:href="#cikis" x="56" y="1036" fill="#6b7c93"/>
 /* -------------------------------------------------------------------------------------------------------------------------------- */
        <defs>
        <symbol id="cekici">
		<path d="M4 11h5V5H4v6zm0 7h5v-6H4v6zm6 0h5v-6h-5v6zm6 0h5v-6h-5v6zm-6-7h5V5h-5v6zm6-6v6h5V5h-5z"/>
		<path d="M12 17.25l-6.188 3.75 1.641-7.031-5.438-4.734 7.172-0.609 2.813-6.609 2.813 6.609 7.172 0.609-5.438 4.734 1.641 7.031z" transform="scale(0.6) translate(18,3)" fill="#fed700"></path>

      	</symbol>
          </defs>
           <use xlink:href="#cekici" x="0" y="1064" fill="#6b7c93"/>
/* SON -------------------------------------------------------------------------------------------------------------------------------- */
        <defs>
        <symbol id="inf_2">
		<path d="M0 0h24v24H0z" fill="none"/>
		<path d="M11 17h2v-6h-2v6zm1-15C6.48 2 2 6.48 2 12s4.48 10 10 10 10-4.48 10-10S17.52 2 12 2zm0 18c-4.41 0-8-3.59-8-8s3.59-8 8-8 8 3.59 8 8-3.59 8-8 8zM11 9h2V7h-2v2z"/>
      	</symbol>
        </defs>
         <use xlink:href="#inf_2" x="28" y="1064" fill="#fbfbfb"/>
	/* SON -------------------------------------------------------------------------------------------------------------------------------- */	 
        <defs>
        <symbol id="btc" >
		<path d="M3987.4,1561.1c-51-531.2-509.6-709.4-1088.5-760.1l0.1-736.8l-448.5,0l0,717.4
		c-117.9,0-238.4,2.3-358.2,4.7l0.1-722.2L1644,64l-0.2,736.6c-97.1,2-192.5,3.8-285.5,3.8l-0.1-2.3l-618.6-0.3l0.1,479
		c0,0,331.2-6.3,325.7-0.2c181.7,0.1,240.8,105.5,258,196.6l0,839.4c12.5,0.1,28.9,0.6,47.4,3.1c-14.9,0-30.9-0.1-47.4,0.1
		l-0.2,1175.9c-8,57.2-41.6,148.3-168.5,148.5c5.7,5.1-326-0.1-326-0.1l-89.2,535.6l583.7,0c108.6,0.1,215.5,2,320.4,2.7l0.1,745.2
		l448,0.1l0.1-737.4c123,2.6,242.1,3.5,358.3,3.5l-0.3,734h448.5l0.2-743.9c754.1-43.2,1281.9-233.1,1347.5-941.2
		c53-570.2-215.2-824.6-643.3-927.4C3862.8,2183.1,4025.4,1949.8,3987.4,1561.1L3987.4,1561.1z M3359.7,3154.5
		c0.2,556.9-953.4,493.5-1257.4,493.7l0.2-987.4C2406.6,2660.9,3359.8,2573.6,3359.7,3154.5z M3151.3,1761.4
		c-0.2,506.7-795.5,447.5-1048.7,447.5l0.1-895.5C2355.9,1313.4,3151.3,1232.9,3151.3,1761.4z" transform="scale(0.005)"/>
      	</symbol>
        </defs>
         <use xlink:href="#btc" x="56" y="1064" fill="#F7931A"/>
	/* SON -------------------------------------------------------------------------------------------------------------------------------- */	 
        <defs>
        <symbol id="dogec" >
    <circle cx="12" cy="12" r="12" fill="#C3A634"/>
    <path fill="#FFF" d="M13.2477876,14.6106443 L17.5619469,14.6106443 L17.5619469,16.8963585 L13.2477876,16.8963585 L13.2477876,21.7142857 L15.9690265,21.7142857 C17.0457281,21.7142857 17.9269877,21.5686289 18.6128319,21.2773109 C19.298676,20.9859929 19.8370187,20.5826356 20.2278761,20.0672269 C20.6187335,19.5518182 20.8842176,18.9467822 21.0243363,18.2521008 C21.164455,17.5574195 21.2345133,16.8067267 21.2345133,16 C21.2345133,15.1932733 21.164455,14.4425805 21.0243363,13.7478992 C20.8842176,13.0532178 20.6187335,12.4481818 20.2278761,11.9327731 C19.8370187,11.4173644 19.298676,11.0140071 18.6128319,10.7226891 C17.9269877,10.4313711 17.0457281,10.2857143 15.9690265,10.2857143 L13.2477876,10.2857143 L13.2477876,14.6106443 Z M10.4823009,16.8963585 L9,16.8963585 L9,14.6106443 L10.4823009,14.6106443 L10.4823009,8 L17.0309735,8 C18.240419,8 19.2876062,8.20914824 20.1725664,8.62745098 C21.0575265,9.04575373 21.7802332,9.61717658 22.340708,10.3417367 C22.9011827,11.0662968 23.3178452,11.9140941 23.590708,12.8851541 C23.8635707,13.856214 24,14.8944856 24,16 C24,17.1055144 23.8635707,18.143786 23.590708,19.1148459 C23.3178452,20.0859059 22.9011827,20.9337032 22.340708,21.6582633 C21.7802332,22.3828234 21.0575265,22.9542463 20.1725664,23.372549 C19.2876062,23.7908518 18.240419,24 17.0309735,24 L10.4823009,24 L10.4823009,16.8963585 Z" transform="scale(0.77)"/>
      	</symbol>
        </defs>
         <use xlink:href="#dogec" x="84" y="1064"  fill="#F7931A"/>
	/* SON -------------------------------------------------------------------------------------------------------------------------------- */	 
        <defs>
        <symbol id="ether" >
 <circle cx="12" cy="12" r="12" fill="#669073"/>
    <path fill="#FFF" d="M9.26925954,14.7537415 L16.5617053,11.7714286 L23.6297681,14.829932 L16.5504862,4 L9.26925954,14.7537415 Z M9.29169783,18.062585 L16.5729245,22.155102 L24,18.062585 L16.6402393,28 L9.29169783,18.062585 Z M16.5953628,13.229932 L23.9775617,16.4190476 L16.5953628,20.4244898 L9,16.3319728 L16.5953628,13.229932 Z"  transform="scale(0.77)"/>
      	</symbol>
        </defs>
         <use xlink:href="#ether" x="112" y="1064"  fill="#F7931A"/>
	/* SON -------------------------------------------------------------------------------------------------------------------------------- */	 
        <defs>
        <symbol id="dash" >
 <circle cx="12" cy="12" r="12" fill="#1C75BC"/>
    <path fill="#FFF"  d="M6.38095238,14.6857143 L14.1142857,14.6857143 L13.1238095,17.6380952 L5.37142857,17.6380952 L6.38095238,14.6857143 Z M9.98095238,9.79047619 C9.98095238,9.79047619 21.1809524,9.79047619 24.3238095,9.79047619 C27.4666667,9.79047619 26.5714286,12.9714286 26.5714286,12.9714286 L22.0190476,12.9714286 L8.97142857,12.9714286 L9.98095238,9.79047619 Z M5.86666667,22.5333333 L6.8952381,19.352381 L19.9238095,19.352381 L24.5333333,19.352381 C24.5333333,19.352381 23.2761905,22.5333333 20.2857143,22.5333333 C17.2952381,22.5333333 5.86666667,22.5333333 5.86666667,22.5333333 Z M22.0190476,12.9714286 L26.5714286,12.9714286 L24.5333333,19.352381 L19.9619048,19.352381 L22.0190476,12.9714286 Z"  transform="scale(0.77)"/>
      	</symbol>
        </defs>
         <use xlink:href="#dash" x="0" y="1092"  fill="#F7931A"/>
	/* SON -------------------------------------------------------------------------------------------------------------------------------- */	 
        <defs>
        <symbol id="kilit_acik" >
    <path d="M0 0h24v24H0z" fill="none"/>
    <path d="M12 17c1.1 0 2-.9 2-2s-.9-2-2-2-2 .9-2 2 .9 2 2 2zm6-9h-1V6c0-2.76-2.24-5-5-5S7 3.24 7 6h1.9c0-1.71 1.39-3.1 3.1-3.1 1.71 0 3.1 1.39 3.1 3.1v2H6c-1.1 0-2 .9-2 2v10c0 1.1.9 2 2 2h12c1.1 0 2-.9 2-2V10c0-1.1-.9-2-2-2zm0 12H6V10h12v10z"/>
      	</symbol>
        </defs>
         <use xlink:href="#kilit_acik" x="28" y="1092"  fill="#F7931A"/>
	/* SON -------------------------------------------------------------------------------------------------------------------------------- */	 
        <defs>
        <symbol id="kilit_kapali" >
    <path d="M0 0h24v24H0z" fill="none"/>
    <path d="M18 8h-1V6c0-2.76-2.24-5-5-5S7 3.24 7 6v2H6c-1.1 0-2 .9-2 2v10c0 1.1.9 2 2 2h12c1.1 0 2-.9 2-2V10c0-1.1-.9-2-2-2zm-6 9c-1.1 0-2-.9-2-2s.9-2 2-2 2 .9 2 2-.9 2-2 2zm3.1-9H8.9V6c0-1.71 1.39-3.1 3.1-3.1 1.71 0 3.1 1.39 3.1 3.1v2z"/>
      	</symbol>
        </defs>
         <use xlink:href="#kilit_kapali" x="56" y="1092"  fill="#F7931A"/>
/* SON -------------------------------------------------------------------------------------------------------------------------------- */	 
        <defs>
        <symbol id="ltc" >
		<g  transform="scale(0.75)">
		   <circle cx="16" cy="16" r="16" fill="#CBC6C6"/>
    <polygon fill="#FFF" points="10.427 19.214 9 19.768 9.688 17.009 11.132 16.429 13.213 8 18.342 8 16.823 14.196 18.233 13.625 17.553 16.375 16.126 16.946 15.278 20.429 23 20.429 22.127 24 9.252 24"/></g>
      	</symbol>
        </defs>
         <use xlink:href="#ltc" x="84" y="1092" />		 
/* SON -------------------------------------------------------------------------------------------------------------------------------- */	 
        <defs>
        <symbol id="xrp" >
		<g  transform="scale(0.75)">
		     <circle cx="16" cy="16" r="16" fill="#00AAE4"/>
    <path fill="#FFF" fill-rule="nonzero" d="M21.9607258,18.2052162 C21.2704736,17.7969333 20.4931636,17.6785975 19.72322,17.6510528 C19.0772398,17.6279439 18.1134664,17.2038822 18.1134664,16.0000561 C18.1134664,15.1031305 18.8232218,14.381284 19.7235503,14.3490781 C20.4934296,14.3215335 21.2706662,14.2030473 21.9607258,13.7949054 C23.6744127,12.7813518 24.4303642,10.6536481 23.7535615,8.74878382 C23.0767587,6.84391954 21.1625926,5.71182285 19.2138715,6.06387171 C17.2651504,6.41592057 15.844464,8.15047962 15.8445318,10.1776004 C15.8445318,10.9869018 16.1255112,11.7316599 16.4840354,12.4224094 C16.7855729,13.003375 16.9381306,14.0816573 15.9039403,14.6933064 C15.1346205,15.148324 14.1744982,14.8602095 13.6949279,14.0739512 C13.2898383,13.4098535 12.8008283,12.7876133 12.1161904,12.3826101 C10.4025323,11.3690578 8.22587264,11.7622312 6.95394542,13.3150745 C5.68201819,14.8679178 5.68201819,17.132138 6.95394542,18.6849813 C8.22587264,20.2378246 10.4025323,20.630998 12.1161904,19.6174457 C12.8006356,19.2125929 13.2896915,18.5907567 13.6945242,17.9270632 C14.0269586,17.3820626 14.8572188,16.687366 15.9039036,17.3068904 C16.6720491,17.7615509 16.909518,18.7576974 16.4836776,19.5782009 C16.1252085,20.268847 15.8445868,21.0134453 15.8445868,21.8226058 C15.8445899,23.8496762 17.2652865,25.5841471 19.2139666,25.9361447 C21.1626466,26.2881423 23.0767458,25.1560486 23.7535191,23.2512269 C24.4302925,21.3464052 23.6743624,19.2187583 21.9607258,18.2052162 Z"/></g>
      	</symbol>
        </defs>
         <use xlink:href="#xrp" x="112" y="1092" />	
/* SON -------------------------------------------------------------------------------------------------------------------------------- */	 
        <defs>
        <symbol id="iota" >
		<g  transform="scale(0.75)">
		<circle cx="16" cy="16" r="16" fill="#242424"/>
    <path fill="#FFF" fill-rule="nonzero" d="M22.256625,6.77011184 C22.256625,7.47145201 21.6865593,8.03960275 20.9834782,8.03960275 C20.2793069,8.03960275 19.7086182,7.47145201 19.7086182,6.77011184 C19.7086182,6.0684612 20.2793069,5.5 20.9834782,5.5 C21.6865593,5.5 22.256625,6.0684612 22.256625,6.77011184 Z M21.3387569,11.1937707 C20.7427141,11.1937707 20.259526,10.7122057 20.259526,10.1181652 C20.259526,9.52412459 20.7427141,9.04255956 21.3387569,9.04255956 C21.9347997,9.04255956 22.4179878,9.52412459 22.4179878,10.1181652 C22.4179878,10.7122057 21.9347997,11.1937707 21.3387569,11.1937707 Z M21.004038,13.8466932 C20.5002102,13.8466932 20.0917771,13.4396321 20.0917771,12.9374968 C20.0917771,12.4353615 20.5002102,12.0283004 21.004038,12.0283004 C21.5078658,12.0283004 21.9162989,12.4353615 21.9162989,12.9374968 C21.9162989,13.4396321 21.5078658,13.8466932 21.004038,13.8466932 Z M20.9503023,15.2192584 C20.9503023,15.6480104 20.6009424,15.996352 20.170901,15.996352 C19.7402366,15.996352 19.3908767,15.6480104 19.3908767,15.2192584 C19.3908767,14.7906617 19.7402366,14.4424753 20.170901,14.4424753 C20.6009424,14.4424753 20.9503023,14.7906617 20.9503023,15.2192584 Z M19.7160945,16.9434252 C19.7160945,17.3121022 19.4167321,17.610459 19.0474354,17.610459 C18.6772042,17.610459 18.3772189,17.3121022 18.3772189,16.9434252 C18.3772189,16.5749033 18.6772042,16.2756152 19.0474354,16.2756152 C19.4167321,16.2756152 19.7160945,16.5749033 19.7160945,16.9434252 Z M18.3661602,18.1660359 C18.3661602,18.4831758 18.1088519,18.7394645 17.7909546,18.7394645 C17.4735245,18.7394645 17.2166835,18.4831758 17.2166835,18.1660359 C17.2166835,17.8496722 17.4733688,17.5933834 17.7909546,17.5933834 C18.1086961,17.5932282 18.3661602,17.8496722 18.3661602,18.1660359 Z M25.2395015,10.7574123 C25.1033711,11.3379817 24.5205334,11.6985866 23.9376958,11.5630687 C23.3554811,11.4270851 22.9936607,10.8465158 23.1304142,10.2659464 C23.2670119,9.6853771 23.8493823,9.32523784 24.431597,9.46106623 C25.0142789,9.59720508 25.375632,10.1774639 25.2395015,10.7574123 Z M24.7217697,13.5602893 C24.6060433,14.0517552 24.1129209,14.3570974 23.6188639,14.241294 C23.1262088,14.1267325 22.8201489,13.6344904 22.9358754,13.143335 C23.0509788,12.6520243 23.54488,12.3463716 24.0370679,12.4618646 C24.5308133,12.5773575 24.8371847,13.0688234 24.7217697,13.5602893 Z M23.758421,15.7971888 C23.6610737,16.2124356 23.2438043,16.4704319 22.8265349,16.3729459 C22.4100443,16.2756152 22.1510226,15.8605237 22.2485257,15.4445007 C22.3455615,15.0289435 22.7636096,14.7712576 23.1804118,14.8682779 C23.5972139,14.9652982 23.8567028,15.3811659 23.758421,15.7971888 Z M22.5159581,17.4993125 C22.4318501,17.8549501 22.0762599,18.074604 21.7195795,17.9917098 C21.3633663,17.9080396 21.1418817,17.5533334 21.2256783,17.1983168 C21.3082288,16.8433002 21.6649092,16.6222492 22.0214339,16.7059195 C22.3776471,16.7889689 22.5989759,17.1444512 22.5159581,17.4993125 Z M21.1590149,18.6876169 C21.0872115,18.9921829 20.7816189,19.1823427 20.475559,19.1103148 C20.1696549,19.0392184 19.9797888,18.7338762 20.0511249,18.4283787 C20.122461,18.1241231 20.4289881,17.9341186 20.735048,18.0061465 C21.0414193,18.0773982 21.2306625,18.3821194 21.1590149,18.6876169 Z M19.8042522,19.4390971 C19.7425729,19.7011295 19.4793459,19.8631922 19.2168976,19.8023411 C18.953982,19.7405585 18.7907501,19.4788366 18.8521178,19.216649 C18.9137971,18.9549272 19.1767126,18.7922436 19.4390052,18.8530947 C19.7022322,18.9148772 19.8654641,19.1767543 19.8042522,19.4390971 Z M26.9076446,14.5826502 C26.6858486,15.0398097 26.1340063,15.2307456 25.6759289,15.0095394 C25.2172285,14.7884884 25.025649,14.2386551 25.2479123,13.7813403 C25.4692411,13.3251122 26.0201489,13.1337106 26.4791608,13.3544511 C26.9373939,13.5759678 27.1297522,14.1258011 26.9076446,14.5826502 Z M25.946788,16.7976619 C25.7572333,17.1869849 25.2893433,17.349358 24.8988639,17.1609058 C24.5082287,16.9732298 24.3457756,16.5053592 24.5336169,16.1165019 C24.7231715,15.7277999 25.1919961,15.5657372 25.5820082,15.7527923 C25.9727992,15.941555 26.1360311,16.4092703 25.946788,16.7976619 Z M24.7387471,18.4788293 C24.5758267,18.8149075 24.1700832,18.9547719 23.8328722,18.7923988 C23.4962842,18.6301809 23.3553254,18.2265765 23.5185573,17.8900326 C23.6814777,17.5544201 24.0872212,17.413469 24.4238092,17.5766183 C24.7613317,17.7391467 24.901979,18.1430615 24.7387471,18.4788293 Z M23.3934855,19.6658917 C23.2515921,19.9575735 22.9003631,20.07881 22.6075425,19.9384799 C22.3148776,19.7975288 22.1924536,19.4457721 22.3335683,19.1540904 C22.4757732,18.8627191 22.827781,18.7408616 23.1196671,18.8815022 C23.4123319,19.0227637 23.5350674,19.3738995 23.3934855,19.6658917 Z M22.0382555,20.3981232 C21.9177007,20.6472712 21.617248,20.751277 21.3671044,20.6306614 C21.1171166,20.5106667 21.0124488,20.2102919 21.1334709,19.9614543 C21.2544931,19.7127719 21.55479,19.6083005 21.8049336,19.7289161 C22.0553887,19.8492213 22.1592777,20.1483542 22.0382555,20.3981232 Z M20.7654203,20.7668002 C20.6627773,20.9786925 20.4070266,21.0674855 20.1947316,20.965032 C19.9830597,20.8628891 19.8936559,20.6083079 19.9962989,20.3968813 C20.0989419,20.1854547 20.3546927,20.0966618 20.5668319,20.1989599 C20.7789711,20.3014134 20.8680633,20.5561498 20.7654203,20.7668002 Z M21.8013512,25.6229367 C21.1915678,25.2739742 20.9819207,24.4967253 21.3333054,23.8893008 C21.6851575,23.2820315 22.463157,23.0730886 23.0734076,23.423293 C23.6827238,23.7734974 23.8933054,24.5498148 23.5419206,25.1570841 C23.1900686,25.7648192 22.4111346,25.973762 21.8013512,25.6229367 Z M18.8108426,24.0907925 C18.2948241,23.7947642 18.1160166,23.1376653 18.4146002,22.6226041 C18.711782,22.108319 19.3709399,21.931354 19.8883602,22.2275375 C20.4040672,22.523721 20.5813171,23.1819066 20.2836681,23.6961916 C19.9864863,24.2109424 19.3271726,24.3879074 18.8108426,24.0907925 Z M16.6093922,22.2508224 C16.1724975,21.9993458 16.0223491,21.4442346 16.2740502,21.0083419 C16.5259071,20.5735358 17.0836681,20.4238918 17.5200955,20.6745921 C17.9563671,20.925603 18.1072943,21.4810247 17.8551259,21.9158308 C17.6040478,22.3520339 17.0464425,22.5009018 16.6093922,22.2508224 Z M15.1075961,20.2770419 C14.7350286,20.0623554 14.6066859,19.5876546 14.821473,19.2154072 C15.0368831,18.8440912 15.5127166,18.7160244 15.8865302,18.9305557 C16.2590977,19.1449317 16.3872846,19.6196325 16.1718745,19.9917246 C15.957399,20.3633511 15.4806309,20.4911074 15.1075961,20.2770419 Z M14.2253961,18.3512282 C13.9048509,18.166812 13.7947317,17.7591717 13.9793021,17.4395481 C14.1641841,17.1197692 14.5739772,17.0109513 14.8942109,17.1949017 C15.2136657,17.3786969 15.3240965,17.786803 15.1398375,18.10534 C14.9552671,18.4255845 14.5453182,18.5350234 14.2253961,18.3512282 Z M13.8361627,16.573972 C13.561254,16.4162558 13.4663988,16.0662066 13.6252695,15.7914452 C13.7838288,15.5173047 14.1350578,15.4235443 14.410278,15.5812605 C14.6848753,15.7392871 14.7795747,16.0896467 14.6211712,16.3640977 C14.462612,16.6376173 14.1109157,16.7318433 13.8361627,16.573972 Z M17.5856686,26.5 C16.9874753,26.5 16.5025438,26.0166975 16.5025438,25.4205136 C16.5025438,24.8243297 16.9874753,24.3410272 17.5856686,24.3410272 C18.1838619,24.3410272 18.6687934,24.8243297 18.6687934,25.4205136 C18.6687934,26.0166975 18.1838619,26.5 17.5856686,26.5 Z M14.6677421,24.362294 C14.2979782,24.0165914 14.2791318,23.438661 14.6252209,23.0701392 C14.9717772,22.7014621 15.551967,22.6831447 15.9217309,23.0276055 C16.2911834,23.3734634 16.3103413,23.9512385 15.9642522,24.3199156 C15.6180074,24.6884374 15.0381291,24.7067548 14.6677421,24.362294 Z M13.2033275,22.4141269 C12.8910374,22.121669 12.8749945,21.6325315 13.1676594,21.32098 C13.4609473,21.0092733 13.9514219,20.9932843 14.2640235,21.2854318 C14.5769366,21.5771136 14.5928237,22.0664062 14.2996915,22.3779577 C14.0073382,22.6895092 13.5163963,22.705343 13.2033275,22.4141269 Z M12.3444908,20.490176 C12.0770583,20.2414936 12.0635076,19.8232974 12.3136512,19.5569186 C12.5645735,19.2910054 12.9827775,19.276724 13.2500542,19.5260273 C13.5174866,19.7757963 13.5310374,20.1935268 13.2810495,20.4600609 C13.030906,20.7259741 12.6117675,20.7401002 12.3444908,20.490176 Z M11.9879661,18.7262698 C11.7586938,18.5122042 11.7473236,18.1533068 11.9616434,17.9246494 C12.1765862,17.6955263 12.5366933,17.6837287 12.7665886,17.897639 C12.996484,18.112015 13.0075426,18.4709124 12.7929113,18.6998802 C12.5778128,18.9286929 12.2181729,18.9404905 11.9879661,18.7262698 Z M12.0117967,17.1799994 C11.81461,16.9965147 11.8043302,16.6880678 11.9890564,16.4916988 C12.1736268,16.2951745 12.4829576,16.2850844 12.6801442,16.4695005 C12.8768636,16.6532957 12.887455,16.9612769 12.7024173,17.1578012 C12.5180026,17.3541702 12.2083603,17.364726 12.0117967,17.1799994 Z M12.6869975,25.7398267 C12.4016531,25.319923 12.5099033,24.7478914 12.9312223,24.4628847 C13.3526971,24.176636 13.9263452,24.2857644 14.2126241,24.705513 C14.4990588,25.1251063 14.3901856,25.6969826 13.9688665,25.9819893 C13.5473917,26.2680827 12.9745224,26.1592648 12.6869975,25.7398267 Z M11.2408062,23.8037677 C10.9967371,23.4464226 11.0900347,22.9599242 11.4484285,22.7171406 C11.806355,22.4745123 12.2948047,22.5667204 12.5385623,22.9232893 C12.7824757,23.2806344 12.6893338,23.7674433 12.3312516,24.0100716 C11.9723905,24.2531656 11.4850311,24.1609576 11.2408062,23.8037677 Z M10.3827483,21.920643 C10.1720109,21.6123513 10.2525366,21.1924476 10.5617115,20.9825733 C10.8715095,20.7723886 11.2934516,20.8521781 11.503566,21.1612459 C11.7147707,21.4700032 11.634245,21.8900622 11.3249143,22.1002469 C11.0149605,22.3090345 10.5928627,22.2301764 10.3827483,21.920643 Z M10.022797,20.1672925 C9.8404071,19.8992061 9.90956262,19.5348756 10.1780854,19.3523222 C10.4472311,19.1699241 10.8126339,19.2391578 10.9958026,19.5072442 C11.179127,19.7750201 11.1095042,20.1405925 10.8398911,20.3222145 C10.5713684,20.5047679 10.2059656,20.4346028 10.022797,20.1672925 Z M10.0623589,18.6314227 C9.90613599,18.4024549 9.96501163,18.0910586 10.1953742,17.93505 C10.4248023,17.7795071 10.7374039,17.8392716 10.8936269,18.067308 C11.050317,18.2968968 10.9909741,18.6093797 10.7606115,18.7636808 C10.5308719,18.9198446 10.2185818,18.8605458 10.0623589,18.6314227 Z M10.3771411,17.3476504 C10.2447488,17.1526785 10.2955251,16.8886281 10.4894409,16.7555939 C10.6847585,16.6239568 10.9506334,16.6744073 11.0831815,16.8689136 C11.2158853,17.0627989 11.1654205,17.3282464 10.9705701,17.4598835 C10.774318,17.5922968 10.5093776,17.5420015 10.3771411,17.3476504 Z M5.63749649,15.8060371 C6.24696837,15.4556774 7.02574665,15.6641546 7.37744292,16.2715792 C7.7294507,16.8788485 7.51933632,17.6554764 6.91048746,18.0061465 C6.30054831,18.3560404 5.5222373,18.147408 5.1710083,17.5410701 C4.81853325,16.9328694 5.02880338,16.1560862 5.63749649,15.8060371 Z M8.46726524,13.9954059 C8.98281646,13.6979805 9.64353196,13.8743246 9.94102526,14.3890753 C10.2382071,14.9036709 10.0615801,15.560925 9.54525014,15.8577295 C9.02923165,16.153913 8.36913918,15.9774137 8.07164588,15.46406 C7.77384106,14.9489988 7.95155827,14.2915894 8.46726524,13.9954059 Z M11.1680683,13.0186833 C11.6043399,12.7681382 12.1630354,12.9173165 12.4144251,13.3518122 C12.6661262,13.7875496 12.5161335,14.3439027 12.0803292,14.5947583 C11.6429673,14.8451482 11.0861408,14.6956594 10.8338167,14.2606981 C10.5821155,13.8262025 10.7321082,13.2698494 11.1680683,13.0186833 Z M13.6346149,12.7128754 C14.0074939,12.4983442 14.4837947,12.6259453 14.6987375,12.997727 C14.9144591,13.3698191 14.7859607,13.8442095 14.4138604,14.0587407 C14.0405141,14.2734272 13.5637461,14.1461366 13.348336,13.7734235 C13.1333932,13.4022627 13.2614243,12.9275619 13.6346149,12.7128754 Z M15.7486864,12.9168509 C16.0698546,12.7329004 16.4782459,12.8423393 16.6631279,13.1618076 C16.8481656,13.4806551 16.7378906,13.8892269 16.4179685,14.0727116 C16.0978906,14.2574382 15.6880975,14.1479993 15.5039943,13.828531 C15.318645,13.5092179 15.4286085,13.101267 15.7486864,12.9168509 Z M17.486608,13.4714964 C17.761984,13.3139354 18.1135245,13.4078511 18.271928,13.6816811 C18.4309546,13.9559768 18.3364109,14.3063364 18.0611906,14.4643631 C17.7861261,14.621924 17.4348971,14.5289398 17.2760264,14.2544888 C17.1176229,13.9801931 17.2121665,13.6299887 17.486608,13.4714964 Z M7.61388,11.2387882 C8.18628204,11.0669458 8.79076974,11.3899846 8.96334701,11.960619 C9.13639154,12.5312535 8.81210826,13.1337106 8.23970623,13.3055529 C7.66777146,13.4775504 7.063128,13.154667 6.89055074,12.584343 C6.71719469,12.013398 7.04116646,11.4112514 7.61388,11.2387882 Z M10.3081413,10.2861267 C10.7931645,10.1402082 11.304043,10.4140382 11.4510763,10.8968111 C11.5974867,11.3803601 11.3225779,11.8904539 10.8381778,12.0368381 C10.352999,12.1821357 9.84180891,11.9086161 9.69461981,11.4255328 C9.54883252,10.9426047 9.82280672,10.4318899 10.3081413,10.2861267 Z M12.7337242,10.0000333 C13.14305,9.87584731 13.5762065,10.1071436 13.6998765,10.5160259 C13.8237022,10.9252186 13.5919378,11.3559886 13.1812102,11.4797089 C12.7718843,11.6031187 12.3384163,11.3718224 12.2149021,10.9637163 C12.0906091,10.5546788 12.323308,10.1235983 12.7337242,10.0000333 Z M14.834868,10.2231023 C15.1843837,10.1176995 15.5536803,10.3146894 15.6602172,10.6645833 C15.7656638,11.0135459 15.5675426,11.3820677 15.2172481,11.487781 C14.8667979,11.5927181 14.4964109,11.3951072 14.3914316,11.0459895 C14.2856735,10.696406 14.4837947,10.3278842 14.834868,10.2231023 Z M16.5447536,10.799946 C16.8452062,10.7096008 17.1624805,10.8784937 17.2540648,11.178558 C17.3447146,11.4789327 17.1740064,11.7952965 16.8732422,11.8859522 C16.5720108,11.9766079 16.255048,11.8064732 16.163931,11.5064089 C16.0728139,11.207276 16.2432106,10.8904466 16.5447536,10.799946 Z M17.8744396,11.5952018 C18.1337728,11.5168095 18.4052549,11.6630384 18.4837557,11.9201033 C18.5616335,12.1784101 18.4155347,12.4496012 18.1569804,12.5273727 C17.898426,12.6049889 17.6264766,12.4592256 17.5481315,12.201695 C17.4704094,11.9436987 17.6165082,11.6720419 17.8744396,11.5952018 Z M10.1047245,7.88825112 C10.6126436,7.85146103 11.054834,8.23131482 11.0915923,8.73814874 C11.1280391,9.2442065 10.7458147,9.68444571 10.2382071,9.7217015 C9.73044361,9.75849158 9.2882533,9.37755117 9.25180648,8.87164864 C9.21551541,8.36465949 9.59711677,7.92442028 10.1047245,7.88825112 Z M12.5108378,7.61038505 C12.9427483,7.57933856 13.3192097,7.90315344 13.3502051,8.333613 C13.3813562,8.76500395 13.0569172,9.13911414 12.6236049,9.17031586 C12.1918502,9.20213851 11.8160118,8.87754748 11.7850165,8.44770884 C11.7532423,8.01631789 12.0783044,7.64205247 12.5108378,7.61038505 Z M14.5750675,7.81389478 C14.9482581,7.78688434 15.2733201,8.06676843 15.3001101,8.43917106 C15.3270558,8.81126322 15.0465399,9.13445717 14.6733494,9.16193331 C14.2995358,9.18816759 13.9750967,8.90859396 13.947528,8.53665703 C13.9205823,8.16378871 14.2010982,7.84074999 14.5750675,7.81389478 Z M16.2784114,8.38235598 C16.6023832,8.35891589 16.8843009,8.60200989 16.9079757,8.9250486 C16.9311833,9.24824255 16.6874257,9.52921327 16.363454,9.55249813 C16.0388592,9.57609346 15.7570972,9.33315469 15.7337339,9.01058168 C15.710059,8.6867668 15.9539724,8.40641701 16.2784114,8.38235598 Z M17.5917431,9.18568387 C17.8689881,9.16596935 18.1100979,9.3728942 18.1301904,9.64951841 C18.1501271,9.92552169 17.9418818,10.1653558 17.6649482,10.1856913 C17.3877032,10.2057162 17.1465934,9.99832571 17.1269682,9.72216719 C17.1065642,9.44600868 17.3148095,9.20632979 17.5917431,9.18568387 Z M18.5485501,10.1010896 C18.7840526,10.0849454 18.9887156,10.2603581 19.0055372,10.4947591 C19.022203,10.7290048 18.8457319,10.9331355 18.6106966,10.950211 C18.3759728,10.9672866 18.1713099,10.7906321 18.154021,10.5562311 C18.1370436,10.3221406 18.3138263,10.1184756 18.5485501,10.1010896 Z"/></g>
      	</symbol>
        </defs>
         <use xlink:href="#iota" x="0" y="1120" />	
		 
		 

		 

</svg>

